<mxfile host="app.diagrams.net" modified="2024-02-20T02:06:27.627Z" agent="Mozilla/5.0 (Windows NT 10.0; Win64; x64) AppleWebKit/537.36 (KHTML, like Gecko) Chrome/121.0.0.0 Safari/537.36 Edg/121.0.0.0" version="23.1.1" etag="BwGCIL_N60zT9tj9BGOX" type="github">
  <diagram name="第 1 页" id="hlyb1rkhuO2eXoRXJr9Z">
    <mxGraphModel>
      <root>
        <mxCell id="0" />
        <mxCell id="1" parent="0" />
      </root>
    </mxGraphModel>
  </diagram>
</mxfile>
